<?xml version="1.0" encoding="utf-8"?>
<!-- Generator: Adobe Illustrator 25.4.1, SVG Export Plug-In . SVG Version: 6.00 Build 0)  -->
<svg version="1.1" id="Ebene_1" xmlns="http://www.w3.org/2000/svg" x="0px" y="0px"
	 viewBox="0 0 248.8 411" style="enable-background:new 0 0 248.8 411;" xml:space="preserve">
<style type="text/css">
	.st0{fill:#FCEA1A;}
</style>
<path class="st0" d="M47.9,334h2.9c4.1,0,4.8,2,4.8,6.2c0,4.2-0.7,6.2-4.5,6.2h-3.2V334z M61.9,340.4c0-8.2-3.6-12.3-10.6-12.3h-9.7
	v41.6h6.3v-17.6h3.2l5.5,17.4l0,0.1h6.7l-6.4-18.9C60.3,348.8,61.9,345.5,61.9,340.4"/>
<polygon class="st0" points="67.4,369.7 85.4,369.7 85.4,363.3 73.7,363.3 73.7,351.7 83.9,351.7 83.9,345.7 73.7,345.7 73.7,334 
	85.4,334 85.4,328.1 67.4,328.1 "/>
<path class="st0" d="M207.4,340.3v-3.1c0-4.6-3.8-9.5-10.1-9.5c-6.3,0-10.3,4.5-10.3,11.5c0,4.9,1.1,8.5,6.6,10.8l4.2,1.7
	c2.7,1.1,3.3,1.7,3.3,6.1c0,3.7-0.3,5.9-4.1,5.9c-3.7,0-4-3.1-4-4v-2.1h-6.3v2.4c0,5.7,4.4,10,10.3,10c6.9,0,10.4-4.1,10.4-12.3
	c0-6-1-9.4-6.3-11.5l-4.5-1.8c-2.9-1.2-3.2-2.1-3.2-5.3c0-3.4,1.2-5.1,3.8-5.1c3.4,0,4,3,4,4.8v1.5H207.4z"/>
<path class="st0" d="M144.3,334h2.9c4.1,0,4.8,2,4.8,6.2c0,4.2-0.7,6.2-4.5,6.2h-3.2V334z M158.3,340.4c0-8.2-3.6-12.3-10.6-12.3
	H138v41.6h6.3v-17.6h3.2l5.5,17.4l0,0.1h6.7l-6.4-18.9C156.7,348.8,158.3,345.5,158.3,340.4"/>
<path class="st0" d="M118.4,338c0-2.9,2-4,3.8-4s3.8,1,3.8,4v21.7c0,2.9-2,4-3.8,4s-3.8-1-3.8-4V338z M122.2,327.7
	c-5,0-10.1,3.5-10.1,10.3v21.7c0,6.7,5.1,10.3,10.1,10.3c5,0,10.1-3.5,10.1-10.3V338C132.3,331.3,127.2,327.7,122.2,327.7"/>
<path class="st0" d="M169.8,334h2.5c3.1,0,4.4,1.4,4.4,4.9v19.8c0,3.5-1.3,4.9-4.4,4.9h-2.5V334z M172.4,328.1h-8.9v41.6h8.4
	c7.3,0,11.1-4,11.1-11.5v-19.2C183,332,179.2,328.1,172.4,328.1"/>
<path class="st0" d="M98.9,327.7c-5.7,0-9.8,4.1-9.8,9.7v22.7c0,9.2,7.6,9.9,9.9,9.9c5.3,0,9.6-4.4,9.6-9.7v-2.7h-6.3v2.2
	c0,3.7-2.7,4-3.5,4c-2.2,0-3.4-1.4-3.4-4v-21c0-3.2,1-4.6,3.4-4.6c2.3,0,3.4,2,3.4,4.1v2.2h6.3v-2.5
	C108.6,332,104.5,327.7,98.9,327.7"/>
<path class="st0" d="M73.3,305.8h-5.4l2.7-13.9L73.3,305.8z M73.2,279.1H68l-9.2,41.3l-0.1,0.2H65l1.7-8.8h7.7l1.7,8.7l0,0.2h6.3
	l-9.3-41.4L73.2,279.1z"/>
<polygon class="st0" points="176.5,314.3 176.5,279.1 170.2,279.1 170.2,320.6 188.2,320.6 188.2,314.3 "/>
<rect x="157.8" y="279.1" class="st0" width="6.3" height="41.6"/>
<path class="st0" d="M98.2,310.6c0,2.6-1.3,4.1-3.4,4.1c-2.2,0-3.4-1.5-3.4-4.1v-31.5H85v32.1c0,5.4,4.4,9.8,9.8,9.8
	s9.8-4.4,9.8-9.8v-32.1h-6.3V310.6z"/>
<path class="st0" d="M120,278.7c-5,0-10.1,3.5-10.1,10.3v21.7c0,6.7,5.1,10.3,10.1,10.3c5,0,10.1-3.5,10.1-10.3v-13.2h-11v5.6h4.7
	v7.5c0,2.9-2,4-3.8,4c-1.8,0-3.8-1-3.8-4V289c0-2.9,2-4,3.8-4c1.8,0,3.8,1,3.8,4v2.3h6.3V289C130.1,282.3,125,278.7,120,278.7"/>
<polygon class="st0" points="135.8,320.6 153.8,320.6 153.8,314.3 142.1,314.3 142.1,302.7 152.3,302.7 152.3,296.7 142.1,296.7 
	142.1,285 153.8,285 153.8,279.1 135.8,279.1 "/>
<path class="st0" d="M94.6,191.3c1.2,0,2.4-0.1,3.5-0.2c1.5-0.2,3.2-2,3.2-3c0-1.3-0.3-2.6-0.3-3.9c0-2-0.1-4,0.3-5.9
	c0.2-1.2-1.2-4.2-1.6-4.3c-1.4-0.5-3.3,0.4-3.8,1.9c-0.8,2.5-1.7,5-2.3,7.6c-0.6,2.4-0.4,5,0.4,7.4C94,191,94.4,191.3,94.6,191.3"/>
<path class="st0" d="M102.9,184.4c0.3,2.1,0.3,2.6,0.6,4.7c0.1,0.4,0.4,0.9,0.7,0.9c1.8,0.4,4,2.3,5.8,2.4c1.1,0.1,2.2-0.5,2-1.9
	c-0.1-1.1-0.2-2.2-0.6-3.3c-0.7-2.1-1.8-4.2-2.5-6.3c-0.8-2.9-2.6-6.9-5.5-6.3c-1.3,0.3-1.5,4.6-1.1,5.9
	C102.9,181.7,103,184.4,102.9,184.4"/>
<path class="st0" d="M194.2,181.8c-3.3,2-7.7,1.9-14.9,0c-7.2-1.9-8.6-8.4-9.3-11c-2.2-8-3.9-16.6-1.9-24.9
	c0.8-3.3,1.5-7.6,3.1-10.6c0.7-1.4,11.6-12,12.3-10.9c-1.3,2.1-2.5,4.4-5.1,8.2c-4.5,6.4-7.3,13.7-6.5,21.7c0.1,1.4,0.5,3.6,0.6,5.7
	c0,0.3,1.1,15.2,11.3,17.1c10.3,1.9,9.7,0.6,11.7,0C197.5,176.5,197.5,179.8,194.2,181.8 M166.2,186.4c-0.3,1.6-0.2,2.7-0.9,6.1
	c-0.6,2.8-2.1,11.8-2.4,13.1c-0.7,3.3-1.4,6.6-2.2,9.9c-1.2,5.3-1.6,14.3-5.8,18.2c-1.8,1.7-3.1,2.3-5.1,4.2c-1.8,1.7-4.2,3-6,4.5
	c-4.4,3.8-9.8,9-15.2,11c-5.4,2.1-12.9,2.1-18.5,1.4c-5.4-0.7-13.6-2-14.5-8.5c-0.8-5.8-0.8-15.3-1-17.5c2.7,0.6,5.4,1.3,8.2,1.3
	c2.5,0,4.7-1.6,7.2-1.3c1.8,0.2,5.5,1.5,7-0.2c1.5-1.7,1.3-1.8,3.8-1.5c1.9,0.3,4.5,0.9,5.7-1.1c0.9-1.4,0.8-2.6,2.8-2.5
	c3.1,0.1,4.5-0.9,6.2-3.3c0.9-1.3,3.9-1.3,5.4-1.7c4-1.3,7.3-8.5,7.3-12c0-1.5-0.2-2.2,0-2.6c0.7-1,1.3-2,2.2-2.8
	c1.6-1.3,2.7-6.6,5.9-15c1.4-3.6,8.9-5.4,11.1-6.3C167.2,182.9,166.8,183.4,166.2,186.4 M104.3,219.2c0,1.1,0,5.3-0.7,6.2
	c-0.5,0.6-2.4,0.8-3.4,0.9c-0.5-1.7-2.2-4-4.2-4.3C101.8,221.6,104.3,215.4,104.3,219.2 M89.1,222.9c-4.6,2.5-9.4,3.6-14.1,6
	c-9.1,4.6-18.8,11.1-28.2,15.2c-8.1-4.7-0.8-5.9,2.6-7.8l9.7-4.9c5.2-2.8,10.7-5.4,16.1-7.8c2.7-1.2,5.5-2.2,8.1-3.6
	c1.5-0.8,3.1-1.5,4.7-2.5c0.9-0.6,6.5-3.3,11-4.8c2.4-0.8,4.8,0.5,4.8,0.5c0.6,1.7-0.7,2.2-2.1,2.9
	C99.5,217.4,91.5,221.7,89.1,222.9 M87.9,198.1c4.3,0.9,5.8,5,4.2,10.1C81.6,209.8,87.7,199.5,87.9,198.1 M101.5,208.9
	c-1.3,0.7-4.6,2-5.2,0.4c-0.8-2.2,0.3-7.1,0.6-9.2c0,0,2.2-0.4,3.8,0.9C101.8,202.5,102.7,208.2,101.5,208.9 M107.1,212.4
	c-0.5-3.1-1-6.1-1.5-9.3c1.6-0.2,6.6-0.2,7.1,2c0.6,2.8,0.4,5.9,0.4,8.8C113.1,215.4,107.3,213.7,107.1,212.4 M108.4,217.7
	c0.2-1,3.2,0,4.3-0.3c0.8,0.9,1.1,1.4,1,3c0,0.9,1.1,3,1.2,3.5c0.5,3.2-2.4,2.4-5,1.2C107.1,223.8,107.9,220.4,108.4,217.7
	 M117.1,202c-0.3,0.7,3-1.5,3.9-0.7c2.5,2.2,4.8,7.8,0.7,10C116.5,214.1,115.8,205.5,117.1,202 M122.8,217c0.3,2.8,2.7,5.2,0.6,7.4
	c-0.7,0.2-4.8,0.6-5.4-0.6c-0.8-1.5-1.7-5.2-1.9-9C119.1,214.1,122.4,213.2,122.8,217 M135.8,202.8c-1-1.7-1.9-3.4-3-5.2
	c1.7-0.5,4.3-2.1,5.6-0.1c0.9,1.4,3.5,3.8,2.4,5.6C140.1,204.3,136.4,203.9,135.8,202.8 M137.1,216.1c-2.3,1.1-1.5-6.2-4.5-7
	C136.8,202.7,144,212.8,137.1,216.1 M127.6,220.6c-0.5-1.2-3.8-11.5,1.1-9.9c3.8,1.3,3.4,2.8,3.5,6
	C132.9,221.8,128.2,219.7,127.6,220.6 M130.4,207.4c-1.8,1.7-2.4-0.5-3.1-1.8c-0.9-1.7-1.9-3.4-2.8-5.1c6.2-2.8,7.4,1,8.4,4.1
	C133,205.5,131.1,206.7,130.4,207.4 M81.4,187.8c-7.4-3.5-9.4-17.5-9.4-17.5c3.2,1.2,11.2,4.8,15.4-3c1.5-2.8,3.4-9.3,4.3-12.3
	c1.2-4-0.6-6.1,0.9-6.9c1.8-1,5.6-2,7.5-1.1c1.4,0.7,5.6,2.9,5.6,4.7c0,6.5,2.3,12.3,6.9,16.9c4.8,4.9,10,9.5,17.1,5.9
	c5.6-2.8,7.6-8.6,8.8-14.4c0.6-3.1,0.8-6.1,0.9-9.2c0.1-3.9,3-4.4,6.2-5.9c6.3-3.1,12.8-5.7,19.3-8.3c-2.7,7-6.4,15.2-4.8,22.7
	c0.9,4.2,2.1,8.5,3.8,12.5c2.1,5-4.8,5.6-6.5,6.9c-3.3,2.5-5.3,4.6-6.8,8.4c-1.5,3.8-2.1,6.8-5.6,9.2c-0.8,0.6-3.9-3.6-5.2-3.8
	c-2.9-0.4-6.6,1.6-8.8,3.3c-3.7,0.3-7.2,1-10.8,1.9c-1.3,0.3-4.5,0.5-5.3,1.6c-0.7,1-3.1-0.7-4.1-0.7c-1.8,0-3.1-0.2-4.9,0.2
	c-1.3,0.3-2.2,1.5-3.5,0.5c-1.4-1-1.7-2.4-3.7-2.6c-1.2-0.1-3.1,0.6-4.1-0.4c-1.9-1.7-5.2-1.5-5.8-3.8
	C88,190.4,83.4,188.7,81.4,187.8 M69.8,150.3c-2.1-1.2,1.4-9.8,2.3-11.3c1-1.6,2.9-4,4.4-5.1c0.7-0.5,7.5-4.4,2.1,4.5
	c-2.7,4.5,5.6-2.3,6.9,3.2c1.1,4.3,3.4,27.6-7.8,26c-4.6-0.7-4.2-3.8-3-7.7c1.2-4,6.1-11.9,5.2-13C78.3,145.1,71.9,151.4,69.8,150.3
	 M118.5,149.1c-3.9,0.9,0.3-8.5,1-9.8c1.4-2.6,9.5-11.4,7.3-2.4c-0.4,1.5-1.5,2.2-0.9,4.7c1.9,1.3,8.7-5.6,7.9,11.9
	c-0.9,22.7-8.3,18.2-11.2,17.5c-1.7-0.4-2.7-2-2.1-3.7c2-5.4,4.2-9.3,6.1-14.8C128.7,146.7,121.7,148.3,118.5,149.1 M65.5,119.4
	c1.2-2.5,2.1-5.1,3.2-7.7c0.9-2.1,0.5-4.6,0.8-6.8c1.1-7.2,2.3-14.4,3.8-21.5c1.3-5.8,2-12.5,4.8-17.8c5.5-10.8,17.1-17.1,28.5-19.9
	c3.2-0.8,6.6-2.4,10-2.1c2.8,0.2,5.7,0.6,8.5,1.1c5.7,1,10.5,2.6,15.5,5.5c5.7,3.3,10.9,5.7,15.5,10.7c3.9,4.3,7.6,8.6,9.5,14.2
	c2.2,6.5,4.5,12.8,7.1,19.3c4.7,11.5,9.1,5.6,7.8,16.9c-0.3,2.9,0.8,6.6-3.9,9.6c-2.6,1.7-4.7,4-6.9,6.2c-1.3,1.3-2,4.7-3.7,5.4
	c-3.1,1.2-6.3,2.4-9.5,3.6c-3.7,1.4-7.2,2.9-10.7,4.6c-1.4,0.7-6,3.8-7.6,3.2c-1.5-0.5-2.8-4.8-3.5-6.1c-1.2-2.3-2.6-4.5-4.7-6
	c-5.4-3.6-10.7-3.4-16.4-0.5c-5.4,2.7-7.6,10.3-8.7,13c-3.4-1.5-7.1-1.7-10.8-1.2c-2,0.3-2.9,1.4-3.6-0.9c-0.5-1.5-2.3-13.1-13-15.4
	c-3.3-0.7-6.5,2.7-8.6-0.3C67.6,124.6,64.5,121.7,65.5,119.4 M196.3,127c-3.9-1.6-3.8-3.5-3.2-7.8c0.4-3.1,0.7-6.2,0.8-9.3
	c0.4-6.3,2-12.5,2.4-18.7c0.4-7.1-0.2-12.2-3.2-18.6c-2.5-5.3-5.7-9.7-9.2-14.4c-7.3-9.7-18.8-16.3-29.2-22.2
	c-11.4-6.4-26.1-7.4-38.4-3.1c-6.1,2.1-12.1,3.2-17.5,6.9c-2.4,1.6-5.1,3-7.4,4.8c-2.1,1.7-4.2,3-6.7,3.9
	c-14.1,4.8-19.3,31.7-20.3,35.8c-4.6,7-10.3,23.4-11.5,27.1c-3.5,6.7-11.7,1.2-15.7,20.6c-2.2,10.7-1.8,29.5,21.9,39.5
	c0.6,0.3,2.8,1,3.7,0.6c1.1-0.5,1.5-1.5,1.1-2.4c-0.5-0.9-2.4-3.7-2.9-4.8c-2.3-4.9-4.7-11-4.9-16.6c-0.3-11.5,6-18.1,3.1-19.8
	c-6.3-3.6,2-25.9,4.6-25.5c1.8,0.2-5.2,16.8-3.4,21.6c0.9,2.5,2.7,2.2,2.8,3.9c0.2,1.9-0.7,3.8-1.4,5.4c-1,2.3-3.9,16.4,1.1,28.5
	c0.8,2,2.1,4.3,3.9,5.7c0.9,4.2-0.8,6.8,0.2,10.9c0.9,3.5,1.2,7.4,3.7,10.2c2.2,2.6,5.7,4.1,8.6,5.6c2,1.1,3.2,1.6,3.2,4
	c0,2.6-1.5,8.4,0.4,10.6c1.6,1.9,8.4,1.2,5.8,3.2c-3.6,2.8-17.7,8.1-19.4,8.8c-7.6,3.3-14.8,7.2-22.4,10.6c-3.1,1.4-5.8,3.6-9.2,4.1
	c-2.7,0.4-2.9,3.1-1.8,4.9c-2.8,0.9,0.8,6.9,2.7,7.5c1.8,0.6,3.1,0.2,4.7,1.4c1.9,1.4,3.4,0.2,5.3-0.6c4.5-2,9.4-3.7,13.5-6.5
	c4.4-3,8.7-5.5,13.7-7.7c1.7-0.8,12.6-9,12.8-4.4c0,1.9,0.1,4.7,0.2,6.6c0.2,2.8,0.2,5.6,0.1,8.4c0,2.2-0.1,4,1.6,5.8
	c1.4,1.5,3,2.8,4.6,4.1c3.5,2.9,7.9,3.9,12.3,4.6c10.1,1.6,21.3,0.2,30-5.6c7.6-5.1,14.8-10,21.5-16.3c2.7-2.6,4.3-5.6,5.7-9.7
	c1.7-5,2.2-11.4,3.1-15.4c2.2-9.4,4.7-18.7,7.1-28c4.9,2,9.4,3.5,14.7,2.2c4.1-1,9.1-3.4,10-7.9c0.5-2.3,0.4-2.5,2.2-3.7
	c5.3-3.7,12.1-10.5,12.1-18.4C213.9,146.1,210.2,132.6,196.3,127"/>
</svg>
